<?xml version="1.0" standalone="no"?>
<!DOCTYPE svg PUBLIC "-//W3C//DTD SVG 20010904//EN"
 "http://www.w3.org/TR/2001/REC-SVG-20010904/DTD/svg10.dtd">
<svg version="1.0" xmlns="http://www.w3.org/2000/svg"
 width="1254.000000pt" height="1254.000000pt" viewBox="0 0 1254.000000 1254.000000"
 preserveAspectRatio="xMidYMid meet">

<g transform="translate(0.000000,1254.000000) scale(0.100000,-0.100000)"
fill="#000000" stroke="none">
<path d="M5930 10813 c-635 -65 -1228 -302 -1690 -677 -108 -87 -310 -286
-402 -396 -377 -450 -616 -999 -683 -1570 -20 -166 -20 -504 0 -657 46 -351
134 -586 278 -740 240 -258 627 -302 1132 -131 530 179 1300 631 1767 1036 54
46 98 86 98 89 0 2 -33 -13 -72 -35 -342 -187 -914 -476 -1123 -567 -283 -125
-538 -215 -725 -257 -149 -33 -370 -33 -483 0 -244 70 -430 235 -548 486 -170
363 -134 781 99 1129 104 157 289 310 464 383 259 109 518 117 791 22 32 -11
59 -18 61 -17 1 2 8 38 14 80 14 93 62 247 108 348 119 259 354 498 619 629
372 184 802 187 1171 7 279 -136 531 -396 647 -670 34 -80 41 -92 32 -50 -5
21 -4 26 3 16 8 -11 12 -10 23 8 8 12 29 29 47 38 17 8 32 21 32 29 0 7 11 16
25 20 14 3 25 10 25 16 0 5 5 6 10 3 6 -3 10 -1 10 5 0 14 21 34 40 38 8 2 17
7 20 11 3 5 14 11 25 15 11 3 25 16 30 28 6 13 15 23 22 23 17 0 78 67 79 88
1 9 2 23 3 31 0 8 14 19 30 24 37 13 72 62 60 84 -6 12 -4 17 11 21 14 3 20
14 20 31 0 19 5 26 20 26 17 0 19 3 10 19 -13 25 -13 34 0 26 6 -3 10 -1 10 6
0 8 5 7 17 -2 15 -13 15 -12 6 6 -9 15 -8 25 3 40 8 10 14 34 14 52 0 26 4 33
19 33 14 0 21 10 25 36 6 27 11 34 23 30 12 -5 14 0 11 24 -3 16 -1 30 3 30 4
0 14 3 22 6 9 3 31 -8 54 -28 55 -49 85 -68 38 -24 -60 54 -248 196 -345 259
-402 260 -875 426 -1375 482 -118 13 -524 19 -625 8z m1520 -1454 c12 -23 20
-43 18 -45 -3 -2 -14 17 -26 41 -27 56 -20 60 8 4z"/>
<path d="M9961 9759 c-345 -41 -764 -217 -1466 -619 -132 -75 -308 -174 -392
-218 -137 -74 -157 -82 -206 -82 -53 0 -903 71 -1277 106 -96 9 -227 17 -290
18 l-115 1 -75 -42 c-128 -71 -138 -56 108 -158 852 -352 929 -389 879 -416
-8 -5 -78 -54 -155 -109 l-141 -100 -211 0 -212 1 -73 -42 c-41 -23 -72 -45
-70 -49 2 -4 70 -33 150 -65 116 -47 144 -62 139 -75 -4 -8 -7 -24 -8 -35 -2
-32 47 -23 262 47 105 35 192 59 192 54 0 -22 -124 -171 -245 -295 -472 -484
-1372 -1114 -2020 -1414 -278 -128 -561 -221 -773 -252 -58 -9 -108 -17 -109
-19 -2 -2 43 -6 100 -10 490 -33 1188 250 2066 836 267 178 396 272 1011 733
878 658 1125 832 1865 1310 325 211 709 470 854 578 184 136 388 304 379 311
-10 10 -103 12 -167 5z"/>
<path d="M7683 9322 c14 -6 8 -10 -29 -20 -76 -20 -46 -22 36 -2 41 10 64 19
50 19 -14 1 -36 4 -50 6 -18 4 -20 3 -7 -3z"/>
<path d="M7510 9250 c-8 -5 -10 -10 -5 -10 6 0 17 5 25 10 8 5 11 10 5 10 -5
0 -17 -5 -25 -10z"/>
<path d="M4155 5702 c11 -11 71 -56 133 -101 465 -332 931 -517 1504 -597 174
-25 614 -25 788 -1 162 23 285 48 441 91 129 35 227 71 164 60 -21 -4 -26 -3
-16 4 10 7 12 23 7 60 -6 49 -6 52 36 94 23 24 41 47 40 51 -2 5 2 6 7 3 5 -3
15 1 22 10 10 13 10 17 -1 24 -9 6 1 15 36 34 75 39 47 31 -52 -15 -585 -271
-1233 -349 -1874 -224 -395 77 -824 251 -1170 472 -47 30 -76 46 -65 35z
m3050 -332 c-3 -5 -12 -10 -18 -10 -7 0 -6 4 3 10 19 12 23 12 15 0z"/>
<path d="M7221 5306 c-16 -19 -11 -29 8 -17 7 5 12 14 9 21 -3 9 -8 7 -17 -4z"/>
<path d="M7420 5240 c-8 -5 -10 -10 -5 -10 6 0 17 5 25 10 8 5 11 10 5 10 -5
0 -17 -5 -25 -10z"/>
<path d="M7370 5220 c-8 -5 -10 -10 -5 -10 6 0 17 5 25 10 8 5 11 10 5 10 -5
0 -17 -5 -25 -10z"/>
<path d="M7320 5200 c-8 -5 -10 -10 -5 -10 6 0 17 5 25 10 8 5 11 10 5 10 -5
0 -17 -5 -25 -10z"/>
<path d="M3185 4484 c-11 -2 -45 -9 -75 -15 -127 -25 -305 -139 -382 -245 -62
-86 -86 -147 -184 -471 -175 -579 -171 -556 -134 -676 38 -123 155 -215 301
-238 41 -6 310 -9 725 -6 711 3 691 2 820 58 122 53 258 180 312 292 17 34 88
244 158 467 116 369 127 412 127 480 0 181 -122 320 -309 350 -55 9 -1314 13
-1359 4z m1070 -398 c42 -18 69 -67 62 -112 -3 -18 -49 -170 -103 -338 -108
-339 -120 -363 -212 -408 -47 -23 -49 -23 -494 -26 -307 -2 -460 1 -489 8 -48
13 -84 48 -92 90 -8 36 170 622 208 687 25 41 72 77 130 100 48 18 945 18 990
-1z"/>
<path d="M5904 4479 c-135 -22 -263 -90 -369 -194 -96 -94 -134 -166 -206
-392 -33 -103 -92 -287 -132 -408 -66 -204 -72 -226 -71 -305 0 -66 5 -96 22
-135 46 -101 156 -181 282 -205 55 -11 1459 -14 1495 -4 11 3 41 40 67 82 26
42 75 119 108 171 33 52 59 98 58 103 -2 5 -314 9 -693 9 -510 0 -699 3 -725
12 -38 13 -80 67 -80 102 0 24 33 134 140 462 70 216 95 258 184 299 l51 24
653 0 653 0 38 43 c134 147 289 333 285 339 -7 11 -1696 8 -1760 -3z"/>
<path d="M9233 4480 c-22 -5 -61 -19 -86 -32 -42 -21 -524 -426 -1047 -878
-124 -108 -342 -297 -485 -420 -143 -124 -281 -243 -307 -265 -26 -21 -45 -42
-42 -47 6 -9 588 -9 621 0 26 8 44 23 588 492 533 459 808 691 820 690 6 0 35
-123 66 -274 l55 -275 -117 -40 c-183 -63 -579 -238 -579 -256 0 -3 18 4 40
15 23 11 53 25 68 30 25 10 26 9 8 -5 -11 -8 -15 -15 -9 -15 16 0 26 -62 11
-72 -10 -6 -9 -8 2 -9 8 0 2 -7 -15 -14 -46 -21 -18 -17 70 10 151 47 550 133
562 122 3 -4 18 -71 34 -149 16 -79 34 -167 40 -195 l10 -53 260 0 c209 0 259
3 259 13 0 25 -209 1054 -302 1484 -15 72 -56 119 -120 138 -57 16 -328 20
-405 5z m-328 -1350 c-11 -5 -27 -9 -35 -9 -9 0 -8 4 5 9 11 5 27 9 35 9 9 0
8 -4 -5 -9z"/>
<path d="M8645 3141 c-16 -10 -91 -52 -165 -94 -133 -75 -213 -126 -144 -93
19 9 35 11 45 5 12 -7 12 -9 0 -9 -8 0 -12 -2 -9 -5 3 -3 72 19 154 49 82 30
144 55 137 56 -6 0 -50 -14 -97 -30 -70 -25 -90 -28 -107 -19 -20 10 -17 13
37 46 31 19 82 47 113 63 31 16 63 34 71 39 25 18 -3 11 -35 -8z m-210 -141
c-3 -5 -11 -10 -16 -10 -6 0 -7 5 -4 10 3 6 11 10 16 10 6 0 7 -4 4 -10z"/>
<path d="M8230 2898 c-25 -17 -36 -27 -25 -23 11 4 32 11 46 16 14 6 26 16 26
24 0 8 -1 15 -1 14 -1 0 -21 -14 -46 -31z"/>
<path d="M2481 2332 c-55 -27 -75 -63 -79 -140 -6 -120 52 -178 178 -176 130
1 184 54 178 176 -6 111 -58 158 -178 158 -42 0 -77 -6 -99 -18z m152 -33 c51
-14 67 -43 68 -120 1 -59 -1 -65 -30 -91 -27 -24 -40 -28 -92 -28 -54 0 -64 3
-90 29 -26 26 -29 36 -29 91 0 73 11 97 53 115 39 17 70 18 120 4z"/>
<path d="M2900 2338 c1 -7 32 -80 69 -163 67 -147 70 -150 100 -150 31 0 33 3
101 152 39 84 70 157 70 163 0 6 -12 10 -27 8 -24 -3 -33 -16 -82 -130 -31
-70 -58 -128 -61 -128 -3 0 -30 57 -62 128 -49 111 -60 127 -82 130 -17 2 -26
-1 -26 -10z"/>
<path d="M3397 2343 c-4 -3 -7 -78 -7 -165 l0 -158 130 0 c123 0 130 1 130 20
0 19 -7 20 -100 20 l-100 0 0 55 0 55 90 0 c83 0 90 1 90 20 0 19 -7 20 -91
20 l-90 0 3 48 3 47 95 0 c91 0 95 1 98 23 3 22 2 22 -121 22 -68 0 -127 -3
-130 -7z"/>
<path d="M3820 2186 l0 -166 25 0 c23 0 24 4 27 63 l3 62 60 0 59 0 36 -62
c30 -53 39 -63 63 -63 15 0 27 3 27 6 0 3 -16 33 -35 65 l-35 60 30 26 c28 23
31 30 28 76 -5 77 -29 91 -174 95 l-114 4 0 -166z m227 102 c7 -6 13 -23 13
-39 0 -44 -34 -61 -116 -57 l-69 3 -3 44 c-2 24 -1 48 1 55 6 14 156 9 174 -6z"/>
<path d="M4355 2330 c-57 -28 -79 -70 -79 -152 -1 -75 16 -109 72 -141 38 -22
156 -26 194 -7 55 29 74 62 41 74 -10 4 -25 -2 -39 -15 -17 -16 -40 -24 -77
-27 -98 -8 -144 39 -135 138 6 60 27 86 80 101 48 12 95 4 125 -23 16 -15 29
-19 47 -14 23 6 25 9 13 26 -34 57 -166 78 -242 40z"/>
<path d="M4770 2185 l0 -165 120 0 c113 0 120 1 120 20 0 18 -8 20 -92 22
l-93 3 -3 143 -3 142 -24 0 -25 0 0 -165z"/>
<path d="M5231 2333 c-88 -44 -108 -193 -36 -272 33 -36 35 -36 123 -39 146
-6 192 33 192 165 0 63 -3 75 -27 104 -15 17 -42 38 -60 45 -45 19 -150 17
-192 -3z m164 -37 c83 -35 88 -192 6 -226 -46 -18 -137 -9 -163 18 -30 29 -38
131 -13 168 32 49 106 66 170 40z"/>
<path d="M5680 2219 l0 -131 33 -32 c58 -59 178 -57 239 4 28 28 28 29 28 159
l0 131 -25 0 -25 0 0 -120 c0 -115 -1 -122 -25 -145 -43 -44 -154 -26 -169 27
-3 13 -6 71 -6 131 l0 107 -25 0 -25 0 0 -131z"/>
<path d="M6160 2185 l0 -165 101 0 c169 0 212 36 207 172 -3 69 -6 80 -32 107
-38 40 -80 51 -188 51 l-88 0 0 -165z m218 99 c28 -19 42 -53 42 -105 0 -87
-49 -124 -155 -117 l-50 3 -3 109 c-1 61 0 116 2 123 7 17 132 8 164 -13z"/>
<path d="M7061 2308 c-11 -24 -44 -96 -75 -161 -31 -65 -56 -120 -56 -123 0
-2 13 -4 29 -4 24 0 31 6 45 40 l16 40 85 0 85 0 20 -40 c17 -33 26 -40 49
-40 l29 0 -76 165 c-72 157 -77 165 -104 165 -24 0 -32 -7 -47 -42z m83 -100
l26 -58 -60 0 c-33 0 -60 2 -60 4 0 19 55 125 61 119 4 -4 19 -34 33 -65z"/>
<path d="M7430 2186 l0 -166 120 0 c113 0 120 1 120 20 0 19 -7 20 -90 20
l-89 0 -3 143 -3 142 -27 3 -28 3 0 -165z"/>
<path d="M7830 2185 l0 -165 120 0 c113 0 120 1 120 20 0 19 -7 20 -95 20
l-95 0 0 145 0 145 -25 0 -25 0 0 -165z"/>
<path d="M8220 2186 l0 -166 30 0 30 0 -2 163 -3 162 -27 3 -28 3 0 -165z"/>
<path d="M8502 2193 c-40 -87 -72 -161 -72 -165 0 -5 11 -8 25 -8 19 0 29 10
45 40 l20 40 84 0 83 0 18 -40 c15 -33 23 -40 46 -40 34 0 38 -14 -52 180 -62
135 -68 145 -96 148 -28 3 -30 -1 -101 -155z m155 -40 c-3 -2 -29 -3 -59 -1
l-54 3 29 65 30 65 29 -64 c16 -35 27 -65 25 -68z"/>
<path d="M8920 2185 l0 -165 30 0 30 0 0 118 1 117 34 -40 c19 -22 61 -75 92
-117 51 -68 62 -77 91 -78 l32 0 0 165 0 165 -25 0 c-27 0 -26 2 -29 -212 -1
-16 -4 -28 -7 -28 -3 0 -48 54 -100 120 -79 102 -98 120 -121 120 l-28 0 0
-165z"/>
<path d="M9473 2331 c-54 -25 -77 -68 -78 -146 0 -72 24 -119 75 -149 71 -42
223 -16 244 41 11 28 -36 46 -51 19 -13 -22 -49 -36 -93 -36 -80 0 -120 41
-120 123 0 56 18 88 60 110 43 22 101 17 141 -12 48 -36 88 -19 52 21 -44 50
-153 63 -230 29z"/>
<path d="M9888 2343 c-1 -5 -2 -79 -3 -165 l-1 -158 128 0 c121 0 128 1 128
20 0 19 -7 20 -100 20 l-100 0 0 55 0 55 90 0 c83 0 90 1 90 20 0 19 -7 20
-91 20 l-90 0 3 48 3 47 95 1 c90 0 95 2 98 22 3 22 1 22 -122 22 -69 0 -127
-3 -128 -7z"/>
</g>
</svg>
